<svg width="1078" height="1756" viewBox="0 0 1078 1756" fill="none" xmlns="http://www.w3.org/2000/svg">
<path d="M145.542 745.6C112.467 830.423 109.747 884.185 109.747 884.185C109.747 884.185 111.333 901.172 118.776 907C148.923 930.61 285.823 1028.1 405.017 1049.15C566.27 1077.63 719.88 1041.47 792.13 994.29C874.86 940.27 857.28 896.351 912.13 800.618C912.13 800.618 882.34 714.028 840.57 669.332C840.57 669.332 157.936 713.816 145.542 745.6Z" fill="url(#paint0_radial_1308_168)"/>
<mask id="mask0_1308_168" style="mask-type:luminance" maskUnits="userSpaceOnUse" x="109" y="669" width="804" height="391">
<path d="M145.542 745.6C112.467 830.423 109.747 884.185 109.747 884.185C109.747 884.185 111.333 901.172 118.776 907C148.923 930.61 285.823 1028.1 405.017 1049.15C566.27 1077.63 719.88 1041.47 792.13 994.29C874.86 940.27 857.28 896.351 912.13 800.618C912.13 800.618 882.34 714.028 840.57 669.332C840.57 669.332 157.936 713.816 145.542 745.6Z" fill="white"/>
</mask>
<g mask="url(#mask0_1308_168)">
<path d="M92.5558 641.813L1027.52 650.402L1024.06 1027.48L89.0918 1018.89L92.5558 641.813Z" fill="url(#paint1_linear_1308_168)"/>
</g>
<path d="M955.2 1247.84C951.77 1251.5 943.22 1267.18 949.95 1282.49C965.16 1317.08 963.58 1316.79 970.18 1339.55C970.18 1339.55 975.73 1373.18 973.63 1398.37C969.25 1451.07 964.45 1446.85 954.69 1493.48C942.05 1553.88 959.77 1577.59 965.67 1604.84C967.93 1615.33 964.69 1631.07 961.42 1640.69C960.35 1643.81 962.35 1654 976.53 1654.35C990.7 1654.7 1011.61 1648.06 1026.33 1629.15C1041.04 1610.25 1054.51 1594.51 1060.04 1574.45C1069.29 1540.85 1056.06 1500.39 1059.75 1474.61C1063.45 1448.82 1080.18 1374.46 1070.18 1317.62C1062.52 1274.13 1051.15 1231.11 1045.1 1223.72C1040.1 1217.61 1037.23 1217.88 1033.42 1220.2C1027.19 1223.98 1022.52 1230.68 997.65 1241.46C972.78 1252.23 955.2 1247.84 955.2 1247.84Z" fill="url(#paint2_linear_1308_168)"/>
<path d="M955.52 1247.35C952.1 1251 947.22 1258.18 953.95 1273.49C969.16 1308.08 967.58 1307.79 974.18 1330.55C974.18 1330.55 979.73 1364.18 977.63 1389.37C973.25 1442.07 968.45 1437.85 958.69 1484.48C946.05 1544.88 963.77 1568.59 969.67 1595.84C971.93 1606.33 968.69 1622.07 965.42 1631.69C964.35 1634.81 966.35 1645 980.53 1645.35C994.7 1645.7 1015.61 1639.06 1030.33 1620.15C1045.04 1601.25 1058.51 1585.51 1064.04 1565.45C1073.29 1531.85 1060.06 1491.39 1063.75 1465.61C1067.45 1439.82 1084.18 1365.46 1074.18 1308.62C1066.52 1265.13 1055.15 1222.11 1049.1 1214.72C1044.1 1208.61 1041.23 1208.88 1037.42 1211.2C1031.19 1214.98 1026.52 1221.68 1001.65 1232.46C976.78 1243.23 959.14 1243.48 955.52 1247.35Z" fill="url(#paint3_linear_1308_168)"/>
<path d="M2.52722 1362.33C-0.272783 1403.72 -1.64378 1443.52 6.02322 1508.66C15.5942 1589.99 54.1902 1661.5 136.782 1710.68C204.035 1750.72 301.941 1764.2 367.491 1749.7C417.626 1738.61 480.773 1710.11 518.34 1647.28C540.63 1610 556.46 1559.13 546.93 1496.9C544.11 1478.57 534.08 1471.4 518.32 1476.34C504.875 1480.54 485.962 1492.26 433.137 1501.95C364.376 1514.57 260.235 1496.36 193.162 1465.15C151.327 1445.68 83.9582 1402.72 25.4202 1342.59C16.6452 1333.58 5.32622 1320.94 2.52722 1362.33Z" fill="url(#paint4_linear_1308_168)"/>
<path d="M5.17386 1345.12C2.37486 1386.51 1.00384 1426.31 8.67084 1491.45C18.2418 1572.78 56.8378 1644.29 139.43 1693.47C206.683 1733.51 304.589 1746.99 370.138 1732.49C420.274 1721.4 483.421 1692.9 520.99 1630.07C543.28 1592.79 559.11 1541.92 549.57 1479.69C546.76 1461.36 536.72 1454.19 520.97 1459.13C507.523 1463.34 488.61 1475.05 435.785 1484.74C367.023 1497.36 262.883 1479.15 195.81 1447.94C153.975 1428.47 86.6058 1385.51 28.0678 1325.38C19.2918 1316.37 7.97386 1303.73 5.17386 1345.12Z" fill="url(#paint5_linear_1308_168)"/>
<path d="M319.549 1024.85C314.778 1020.76 263.657 984.54 273.107 904.721C283.466 817.227 398.765 771.572 457.699 771.757C488.027 771.572 502.218 773.759 548.55 828.263C588.12 874.821 595.5 927.48 595.5 927.48C595.5 927.48 587.52 777.36 669.32 739.308C756.54 698.739 801.87 754.111 801.87 754.111C801.87 754.111 845.77 786.615 857.28 830.833C868.06 872.266 855.87 908.94 855.87 908.94L692.36 1088.62C692.36 1088.62 418.674 1109.81 319.549 1024.85Z" fill="url(#paint6_linear_1308_168)"/>
<path d="M640.35 967.21C640.35 967.21 606.34 839.265 693.15 809.852C777.62 781.23 813.39 864.282 813.39 864.282C813.39 864.282 814.11 877.581 810.37 895.396C804.91 921.43 789.94 957.12 749.32 975.04C685.47 1003.19 640.35 967.21 640.35 967.21Z" fill="url(#paint7_linear_1308_168)"/>
<mask id="mask1_1308_168" style="mask-type:luminance" maskUnits="userSpaceOnUse" x="633" y="803" width="181" height="183">
<path d="M640.35 967.21C640.35 967.21 606.34 839.265 693.15 809.852C777.62 781.23 813.39 864.282 813.39 864.282C813.39 864.282 814.11 877.581 810.37 895.396C804.91 921.43 789.94 957.12 749.32 975.04C685.47 1003.19 640.35 967.21 640.35 967.21Z" fill="white"/>
</mask>
<g mask="url(#mask1_1308_168)">
<path d="M611.14 883.723C610.67 835.566 648.97 796.151 696.68 795.687C744.39 795.223 783.45 833.885 783.92 882.041C784.39 930.2 746.09 969.61 698.38 970.08C650.66 970.54 611.6 931.88 611.14 883.723Z" fill="#080521"/>
</g>
<path d="M545.23 978.69C545.23 978.69 553.7 866.128 462.723 850.3C363.775 833.084 340.992 933.7 340.992 933.7C340.992 933.7 336.652 1011.16 430.519 1024.07C511.043 1035.15 545.23 978.69 545.23 978.69Z" fill="url(#paint8_linear_1308_168)"/>
<mask id="mask2_1308_168" style="mask-type:luminance" maskUnits="userSpaceOnUse" x="340" y="848" width="206" height="178">
<path d="M545.23 978.69C545.23 978.69 553.7 866.128 462.723 850.3C363.775 833.084 340.992 933.7 340.992 933.7C340.992 933.7 336.652 1011.16 430.519 1024.07C511.043 1035.15 545.23 978.69 545.23 978.69Z" fill="white"/>
</mask>
<g mask="url(#mask2_1308_168)">
<path d="M354.575 916.59C354.058 863.482 395.054 820.028 446.141 819.53C497.229 819.033 539.06 861.681 539.58 914.79C540.1 967.89 499.101 1011.35 448.013 1011.84C396.925 1012.34 355.092 969.69 354.575 916.59Z" fill="#080521"/>
</g>
<path d="M606.64 1026.41C606.64 1026.41 626.46 1001.38 642.68 993.77L555.68 1006.33C555.68 1006.33 582.7 1011.23 606.64 1026.41Z" fill="#E86A2C"/>
<path d="M551.59 1006.14C551.59 1006.14 575.02 1010.07 598.33 969.04C598.33 969.04 625.29 998.95 648.13 992.37C648.13 992.37 627.33 998.02 607.33 1014.4C607.33 1014.4 589.52 1007.4 551.59 1006.14Z" fill="#FF953E"/>
<path d="M640.129 967.27C640.129 967.27 638.829 881.043 708.219 857.466C777.609 833.889 811.89 872.946 811.89 872.946C811.89 872.946 828.21 855.382 804.13 829.051C780.06 802.72 716.89 806.999 716.89 806.999C716.89 806.999 666.499 805.657 643.339 873.671C629.249 915.07 640.129 967.27 640.129 967.27Z" fill="#0E102D" fill-opacity="0.583333"/>
<path d="M544.71 979.67C544.71 979.67 533.81 901.055 450.524 896.503C361.295 891.625 344.448 961.23 344.448 961.23C344.448 961.23 325.622 916.65 349.015 890.021C372.408 863.391 431.637 845.213 450.914 847.776C470.191 850.338 530.07 887.544 536.21 908C548.38 948.56 544.71 979.67 544.71 979.67Z" fill="#0E102D" fill-opacity="0.583333"/>
<path d="M640.32 967.7C640.32 967.7 603.51 852.161 680.67 807.458C715.08 787.517 747.27 788.001 779.95 797.858C817.51 811.071 829.14 835.891 829.63 862.935C830.73 882.78 823.76 929.36 762.13 968.17C762.13 968.17 811.5 926.98 810.35 872.699C809.37 826.315 747.12 797.548 688.7 825.029C617.56 858.494 640.32 967.7 640.32 967.7Z" fill="#080521"/>
<path d="M544.96 979.78C544.96 979.78 546.94 966.05 545.88 947.07C543.73 908.58 529.11 848.511 460.239 837.565C416.256 830.574 380.078 844.688 353.621 866.881C328.933 887.59 321.405 918.85 324.004 940.44C327.083 954.79 345.596 1010.42 434.619 1024.43C434.619 1024.43 347.837 1009.64 344.506 938.65C342.975 906.018 380.701 849.96 460.373 857.132C544.7 864.723 544.96 979.78 544.96 979.78Z" fill="#080521"/>
<path d="M728.93 860.596C728.83 850.353 743.21 841.908 761.04 841.734C778.87 841.561 793.41 849.724 793.51 859.968C793.61 870.212 779.23 878.656 761.4 878.83C743.57 879.003 729.03 870.84 728.93 860.596Z" fill="white"/>
<path d="M456.185 911.169C456.085 900.928 470.46 892.483 488.291 892.31C506.123 892.136 520.66 900.3 520.76 910.539C520.86 920.789 506.484 929.229 488.652 929.409C470.821 929.579 456.284 921.419 456.185 911.169Z" fill="white"/>
<path d="M352.716 187.838C338.072 200.613 333.85 237.616 324.24 260.507C314.956 282.619 281.47 322.813 261.588 393.708C252.563 425.889 257.488 448.367 232.051 491.818C207.961 532.967 210.803 554.82 197.556 572.463C185.45 588.585 180.481 589.279 172.31 606.302C172.31 606.302 192.511 603.203 227.21 617.814C261.91 632.424 336.057 653.243 382.445 657.26C419.962 660.51 482.578 661.863 530.861 658.995C542.281 658.317 552.9 657.404 562.19 656.223C609.82 650.172 668.74 636.744 738.69 609.606C782.281 592.699 819.391 568.052 819.391 568.052C807.361 492.896 763.38 441.488 742.211 424.234C724.93 410.154 684.021 272.525 528.691 227.474C528.691 227.474 418.395 184.527 400.04 179.834C391.329 177.608 373.803 169.443 352.716 187.838Z" fill="url(#paint9_radial_1308_168)"/>
<mask id="mask3_1308_168" style="mask-type:luminance" maskUnits="userSpaceOnUse" x="172" y="176" width="648" height="485">
<path d="M352.716 187.838C338.072 200.613 333.85 237.616 324.24 260.507C314.956 282.619 281.47 322.813 261.588 393.708C252.563 425.889 257.488 448.367 232.051 491.818C207.961 532.967 210.803 554.82 197.556 572.463C185.45 588.585 180.481 589.279 172.31 606.302C172.31 606.302 192.511 603.203 227.21 617.814C261.91 632.424 336.057 653.243 382.445 657.26C419.962 660.51 482.578 661.863 530.861 658.995C542.281 658.317 552.9 657.404 562.19 656.223C609.82 650.172 668.74 636.744 738.69 609.606C782.281 592.699 819.391 568.052 819.391 568.052C807.361 492.896 763.38 441.488 742.211 424.234C724.93 410.154 684.021 272.525 528.691 227.474C528.691 227.474 418.395 184.527 400.04 179.834C391.329 177.608 373.803 169.443 352.716 187.838Z" fill="white"/>
</mask>
<g mask="url(#mask3_1308_168)">
<path d="M-87.0732 73.5801H1166.13V749.268H-87.0732V73.5801Z" fill="url(#paint10_linear_1308_168)"/>
</g>
<path d="M164.261 725.319C164.261 725.319 142.916 736.224 150.35 736.031C158.632 735.817 283.67 792.103 413.878 812.044C508.785 826.579 631.98 815.011 729.29 765.267C795.31 731.52 827.25 715.882 853.58 683.319C860.16 675.189 862.22 654.664 847.24 621.191C833.29 590.016 834.4 567.074 828.3 559.815C828.3 559.815 819.89 549.968 810.81 556.33C762.87 589.918 679.81 621.897 585.7 643.643C514.525 660.088 377.982 657.492 278.992 629.668C237.589 618.03 203.263 598.981 178.374 597.077L182.019 591.193C170.805 594.112 161.863 593.959 148.968 619.897C137.337 643.295 151.582 673.076 147.845 682.251C144.762 689.816 121.505 697.493 140.956 712.354C158.455 725.724 164.261 725.319 164.261 725.319Z" fill="url(#paint11_linear_1308_168)"/>
<path d="M138.855 764.805L145.897 746.481C156.188 746.73 283.6 807.855 413.809 827.796C508.716 842.331 631.91 830.762 729.22 781.018C795.24 747.271 849.21 717.382 858.07 687.935C865.46 663.353 862.15 670.415 847.17 636.943C833.22 605.767 834.33 582.825 828.23 575.567C828.23 575.567 819.82 565.72 810.74 572.082C762.8 605.669 679.74 637.649 585.63 659.394C514.455 675.839 377.912 673.244 278.923 645.419C229.763 631.602 189.794 607.491 164.737 614.013C153.524 616.932 149.089 622.795 136.194 648.733C124.563 672.131 128.536 689.826 124.798 699.001C121.715 706.567 108.136 720.303 113.913 744.089C120.127 769.678 138.855 764.805 138.855 764.805Z" fill="url(#paint12_linear_1308_168)"/>
<path d="M143.022 755.64C143.022 755.64 146.154 741.569 153.588 741.376C161.87 741.162 286.907 797.448 417.116 817.389C512.023 831.925 635.22 820.356 732.53 770.612C798.54 736.865 830.49 721.227 856.82 688.664C863.39 680.534 865.45 660.009 850.48 626.536C836.53 595.361 837.64 572.419 831.53 565.16C831.53 565.16 823.13 555.313 814.05 561.675C766.1 595.263 683.04 627.242 588.93 648.988C517.76 665.433 381.219 662.837 282.23 635.013C233.07 621.195 193.101 597.084 168.044 603.607C156.831 606.526 152.396 612.388 139.502 638.327C127.87 661.725 131.843 679.42 128.105 688.595C125.023 696.16 111.443 709.897 117.22 733.683C123.434 759.271 143.022 755.64 143.022 755.64Z" fill="url(#paint13_radial_1308_168)"/>
<mask id="mask4_1308_168" style="mask-type:luminance" maskUnits="userSpaceOnUse" x="115" y="559" width="747" height="265">
<path d="M143.022 755.64C143.022 755.64 146.154 741.569 153.588 741.376C161.87 741.162 286.907 797.448 417.116 817.389C512.023 831.925 635.22 820.356 732.53 770.612C798.54 736.865 830.49 721.227 856.82 688.664C863.39 680.534 865.45 660.009 850.48 626.536C836.53 595.361 837.64 572.419 831.53 565.16C831.53 565.16 823.13 555.313 814.05 561.675C766.1 595.263 683.04 627.242 588.93 648.988C517.76 665.433 381.219 662.837 282.23 635.013C233.07 621.195 193.101 597.084 168.044 603.607C156.831 606.526 152.396 612.388 139.502 638.327C127.87 661.725 131.843 679.42 128.105 688.595C125.023 696.16 111.443 709.897 117.22 733.683C123.434 759.271 143.022 755.64 143.022 755.64Z" fill="white"/>
</mask>
<g mask="url(#mask4_1308_168)">
<path d="M-144.206 291.114H1108.99V966.799H-144.206V291.114Z" fill="url(#paint14_linear_1308_168)"/>
</g>
<path d="M567.52 1360.25C567.52 1360.25 600.85 1473.61 593.44 1553.48C586.32 1630.15 535.18 1683.63 535.18 1683.63C532.09 1693.57 528.33 1697.83 538.89 1709.41C559.71 1732.22 615.86 1733.44 642.24 1730.88C662.45 1728.92 662.83 1722 662.83 1722L726.25 1478.48L675.74 1315.47L567.52 1360.25Z" fill="url(#paint15_linear_1308_168)"/>
<path d="M571.2 1352.86C571.2 1352.86 602.39 1462.98 596.27 1536.49C589.88 1613.23 561.37 1646.83 547.89 1666.71C537.26 1682.39 524.24 1689.68 541.82 1704.02C565.76 1723.55 619.54 1726.05 645.92 1723.49C666.13 1721.53 666.52 1714.61 666.52 1714.61L729.93 1471.09L679.43 1308.08L571.2 1352.86Z" fill="url(#paint16_linear_1308_168)"/>
<path d="M41.6072 1097.97C41.6072 1097.97 38.8552 1141.87 22.1542 1172.75C3.38616 1207.46 -1.58385 1235.22 5.13615 1255.41C10.0421 1270.16 54.1792 1321.15 113.491 1363.22C170.395 1403.59 209.335 1418.85 252.189 1431.46C308.851 1448.13 398.882 1454.33 437.445 1444.97C471.455 1436.72 514.926 1422.37 577.93 1363.33C623.35 1320.77 801.73 1239.55 801.73 1239.55C801.73 1239.55 914.67 1240.95 964.62 1224.8C1014.65 1208.62 1038.48 1190.66 1037.97 1168.74C1037.66 1155.67 1032.18 1156.07 1031.76 1144.79C1031.33 1133.52 1035.16 1130.02 1032.96 1115.87C1031.33 1105.42 1021.16 1099.05 1021.16 1099.05L41.6072 1097.97Z" fill="url(#paint17_linear_1308_168)"/>
<path d="M46.4265 1087.12C46.4265 1087.12 43.6745 1131.02 26.9735 1161.91C8.20549 1196.61 3.23549 1224.38 9.95549 1244.57C14.8625 1259.31 58.9985 1310.3 118.31 1352.38C175.214 1392.75 214.154 1408 257.008 1420.61C313.671 1437.29 394.676 1444.67 434.737 1436.68C463.062 1431.03 519.74 1411.53 582.75 1352.49C628.17 1309.93 806.551 1228.7 806.551 1228.7C806.551 1228.7 919.49 1230.11 969.44 1213.95C1019.47 1197.77 1043.3 1179.81 1042.79 1157.9C1042.48 1144.83 1037 1145.22 1036.58 1133.95C1036.15 1122.68 1039.98 1119.18 1037.78 1105.03C1036.15 1094.57 1025.98 1088.2 1025.98 1088.2L46.4265 1087.12Z" fill="url(#paint18_radial_1308_168)"/>
<mask id="mask5_1308_168" style="mask-type:luminance" maskUnits="userSpaceOnUse" x="7" y="1087" width="1036" height="353">
<path d="M46.4265 1087.12C46.4265 1087.12 43.6745 1131.02 26.9735 1161.91C8.20549 1196.61 3.23549 1224.38 9.95549 1244.57C14.8625 1259.31 58.9985 1310.3 118.31 1352.38C175.214 1392.75 214.154 1408 257.008 1420.61C313.671 1437.29 394.676 1444.67 434.737 1436.68C463.062 1431.03 519.74 1411.53 582.75 1352.49C628.17 1309.93 806.551 1228.7 806.551 1228.7C806.551 1228.7 919.49 1230.11 969.44 1213.95C1019.47 1197.77 1043.3 1179.81 1042.79 1157.9C1042.48 1144.83 1037 1145.22 1036.58 1133.95C1036.15 1122.68 1039.98 1119.18 1037.78 1105.03C1036.15 1094.57 1025.98 1088.2 1025.98 1088.2L46.4265 1087.12Z" fill="white"/>
</mask>
<g mask="url(#mask5_1308_168)">
<path d="M-189.611 864.059H1063.59V1539.75H-189.611V864.059Z" fill="url(#paint19_radial_1308_168)"/>
</g>
<path d="M666.72 1312.83C666.72 1312.83 694.66 1436.52 688.23 1533.43C681.51 1634.74 647.67 1717.11 648.68 1729.53C649.37 1738.02 654.18 1749.85 705.06 1747.08C806.21 1741.55 898.05 1680.22 918.76 1648.27C939.46 1616.34 909.57 1578.78 908.58 1544.67C906.24 1463.41 933.43 1436.42 934.22 1390.85C935.18 1336.14 909.57 1296.45 909.57 1265.34C909.57 1224.1 924.05 1170.5 924.05 1170.5L792.89 1222.16L666.72 1312.83Z" fill="url(#paint20_linear_1308_168)"/>
<path d="M669.29 1306.38C669.29 1306.38 697.22 1430.07 690.79 1526.99C684.07 1628.29 650.23 1710.66 651.24 1723.08C651.93 1731.57 656.74 1743.41 707.62 1740.63C808.77 1735.11 900.61 1673.78 921.32 1641.82C942.02 1609.89 912.13 1572.33 911.14 1538.22C908.8 1456.97 935.99 1429.97 936.79 1384.4C937.74 1329.7 912.13 1290 912.13 1258.89C912.13 1217.65 943.76 1159.37 943.76 1159.37L795.45 1215.71L669.29 1306.38Z" fill="url(#paint21_linear_1308_168)"/>
<path d="M108.06 877.053C108.06 877.053 91.002 886.282 78.277 900.456C65.552 914.63 66.439 990.83 61.881 1015.43C57.322 1040.03 39.9431 1053.04 35.6111 1063.07C31.5201 1072.53 31.131 1088.08 43.756 1100.62C56.382 1113.15 205.512 1238.1 252.809 1270.65C284.224 1292.27 424.83 1369.58 513.764 1368.59C602.7 1367.59 700.78 1312.03 778.96 1262.15C856.01 1213.01 922.66 1195.74 972.41 1158.14C1019.2 1122.78 1049.72 1108.14 1038.12 1078.2C1028.56 1053.5 1034.98 1018.99 1020.69 979.61C1006.3 939.96 980.62 921.35 974.16 910.67C966.66 898.286 962.7 853.713 948.08 830.75C933.47 807.788 909.29 796.263 906.09 804.306C846.45 954.1 761.97 1000.38 675.4 1029.93C599.33 1055.89 451.572 1065.82 300.654 1009.93C168.073 960.83 127.404 918.09 111.498 901.221C106.426 895.841 108.06 877.053 108.06 877.053Z" fill="url(#paint22_linear_1308_168)"/>
<path d="M111.35 869.273C111.35 869.273 94.2913 878.502 81.5663 892.676C68.8423 906.851 69.7293 983.05 65.1703 1007.65C60.6123 1032.25 43.2334 1045.26 38.9014 1055.29C34.8104 1064.75 34.4204 1080.3 47.0464 1092.84C59.6714 1105.37 208.801 1230.32 256.099 1262.87C287.514 1284.49 428.119 1361.8 517.05 1360.81C605.99 1359.81 704.07 1304.25 782.25 1254.37C859.3 1205.23 925.95 1187.96 975.7 1150.36C1022.49 1115 1053.01 1100.36 1041.41 1070.42C1031.85 1045.72 1038.27 1011.21 1023.98 971.83C1009.59 932.18 983.91 913.57 977.45 902.892C969.95 890.506 965.99 845.932 951.37 822.97C936.76 800.008 912.58 788.483 909.38 796.526C849.74 946.32 765.26 992.6 678.69 1022.15C602.62 1048.11 454.861 1058.04 303.943 1002.15C171.362 953.05 130.694 910.31 114.788 893.441C109.716 888.061 111.35 869.273 111.35 869.273Z" fill="url(#paint23_radial_1308_168)"/>
<mask id="mask6_1308_168" style="mask-type:luminance" maskUnits="userSpaceOnUse" x="36" y="793" width="1008" height="568">
<path d="M111.35 869.273C111.35 869.273 94.2913 878.502 81.5663 892.676C68.8423 906.851 69.7293 983.05 65.1703 1007.65C60.6123 1032.25 43.2334 1045.26 38.9014 1055.29C34.8104 1064.75 34.4204 1080.3 47.0464 1092.84C59.6714 1105.37 208.801 1230.32 256.099 1262.87C287.514 1284.49 428.119 1361.8 517.05 1360.81C605.99 1359.81 704.07 1304.25 782.25 1254.37C859.3 1205.23 925.95 1187.96 975.7 1150.36C1022.49 1115 1053.01 1100.36 1041.41 1070.42C1031.85 1045.72 1038.27 1011.21 1023.98 971.83C1009.59 932.18 983.91 913.57 977.45 902.892C969.95 890.506 965.99 845.932 951.37 822.97C936.76 800.008 912.58 788.483 909.38 796.526C849.74 946.32 765.26 992.6 678.69 1022.15C602.62 1048.11 454.861 1058.04 303.943 1002.15C171.362 953.05 130.694 910.31 114.788 893.441C109.716 888.061 111.35 869.273 111.35 869.273Z" fill="white"/>
</mask>
<g mask="url(#mask6_1308_168)">
<path d="M-179.139 737.769H1074.06V1413.46H-179.139V737.769Z" fill="url(#paint24_linear_1308_168)"/>
</g>
<path d="M212.281 94.6416C212.281 46.3626 251.42 7.22461 299.699 7.22461C347.979 7.22461 387.117 46.3626 387.117 94.6416C387.117 142.922 347.979 182.06 299.699 182.06C251.42 182.06 212.281 142.922 212.281 94.6416Z" fill="url(#paint25_linear_1308_168)"/>
<path d="M214.643 87.6076C214.643 39.3276 253.782 0.189453 302.061 0.189453C350.341 0.189453 389.479 39.3276 389.479 87.6076C389.479 135.887 350.341 175.026 302.061 175.026C253.782 175.026 214.643 135.887 214.643 87.6076Z" fill="url(#paint26_radial_1308_168)"/>
<defs>
<radialGradient id="paint0_radial_1308_168" cx="0" cy="0" r="1" gradientUnits="userSpaceOnUse" gradientTransform="translate(649.7 908.8) rotate(-172.429) scale(479.493 479.494)">
<stop offset="0.59375" stop-color="#27254A"/>
<stop offset="0.695833" stop-color="#211D3F"/>
<stop offset="1" stop-color="#090316"/>
</radialGradient>
<linearGradient id="paint1_linear_1308_168" x1="592.23" y1="1294.02" x2="521.917" y2="810.169" gradientUnits="userSpaceOnUse">
<stop offset="0.516667" stop-color="#27254A" stop-opacity="0"/>
<stop offset="1" stop-color="#191226"/>
</linearGradient>
<linearGradient id="paint2_linear_1308_168" x1="1011.58" y1="1209.62" x2="1023.75" y2="1971.27" gradientUnits="userSpaceOnUse">
<stop offset="0.208333" stop-color="#0A091B"/>
<stop offset="1" stop-color="#140A28"/>
</linearGradient>
<linearGradient id="paint3_linear_1308_168" x1="1018.36" y1="1372.65" x2="1006.06" y2="1950.79" gradientUnits="userSpaceOnUse">
<stop stop-color="#27254A"/>
<stop offset="1" stop-color="#0D061D"/>
</linearGradient>
<linearGradient id="paint4_linear_1308_168" x1="547.95" y1="1694.12" x2="47.9262" y2="1645.02" gradientUnits="userSpaceOnUse">
<stop offset="0.358333" stop-color="#191643"/>
<stop offset="1" stop-color="#090216"/>
</linearGradient>
<linearGradient id="paint5_linear_1308_168" x1="330.74" y1="1610.06" x2="36.8828" y2="1453.17" gradientUnits="userSpaceOnUse">
<stop stop-color="#27254A"/>
<stop offset="1" stop-color="#080312"/>
</linearGradient>
<linearGradient id="paint6_linear_1308_168" x1="594.33" y1="924.56" x2="578.286" y2="791.397" gradientUnits="userSpaceOnUse">
<stop stop-color="#FBF2E9"/>
<stop offset="1" stop-color="#FFDBE8"/>
</linearGradient>
<linearGradient id="paint7_linear_1308_168" x1="664.63" y1="1000.09" x2="740.465" y2="847.504" gradientUnits="userSpaceOnUse">
<stop stop-color="#63A7FF"/>
<stop offset="1" stop-color="#6555E2"/>
</linearGradient>
<linearGradient id="paint8_linear_1308_168" x1="537.02" y1="1005.3" x2="385.086" y2="934.47" gradientUnits="userSpaceOnUse">
<stop stop-color="#63A7FF"/>
<stop offset="1" stop-color="#6555E2"/>
</linearGradient>
<radialGradient id="paint9_radial_1308_168" cx="0" cy="0" r="1" gradientUnits="userSpaceOnUse" gradientTransform="translate(548.651 525.245) rotate(75.3291) scale(663.514 663.514)">
<stop stop-color="#5B9CFF"/>
<stop offset="1" stop-color="#3C42C0"/>
</radialGradient>
<linearGradient id="paint10_linear_1308_168" x1="189.247" y1="431.414" x2="501.972" y2="561.515" gradientUnits="userSpaceOnUse">
<stop stop-color="#3A3682"/>
<stop offset="1" stop-color="#719CFF" stop-opacity="0"/>
</linearGradient>
<linearGradient id="paint11_linear_1308_168" x1="843.09" y1="574.037" x2="140.194" y2="647.738" gradientUnits="userSpaceOnUse">
<stop stop-color="#5FA0FF"/>
<stop offset="1" stop-color="#5D8FFF"/>
</linearGradient>
<linearGradient id="paint12_linear_1308_168" x1="884.03" y1="690.331" x2="112.062" y2="735.216" gradientUnits="userSpaceOnUse">
<stop stop-color="#594DA9"/>
<stop offset="0.420833" stop-color="#4666C8"/>
<stop offset="1" stop-color="#3F2E7B"/>
</linearGradient>
<radialGradient id="paint13_radial_1308_168" cx="0" cy="0" r="1" gradientUnits="userSpaceOnUse" gradientTransform="translate(567.85 720.464) rotate(-172.963) scale(361.628 361.628)">
<stop stop-color="#6491FF"/>
<stop offset="1" stop-color="#5159EA"/>
</radialGradient>
<linearGradient id="paint14_linear_1308_168" x1="90.091" y1="657.275" x2="660.769" y2="790.187" gradientUnits="userSpaceOnUse">
<stop stop-color="#3A3682"/>
<stop offset="1" stop-color="#719CFF" stop-opacity="0"/>
</linearGradient>
<linearGradient id="paint15_linear_1308_168" x1="821.09" y1="1615.48" x2="442.419" y2="1715.58" gradientUnits="userSpaceOnUse">
<stop stop-color="#594DA9"/>
<stop offset="0.420833" stop-color="#5674D1"/>
<stop offset="1" stop-color="#5F4BA7"/>
</linearGradient>
<linearGradient id="paint16_linear_1308_168" x1="587.87" y1="1733.05" x2="662.307" y2="1123.01" gradientUnits="userSpaceOnUse">
<stop stop-color="#608FE9"/>
<stop offset="1" stop-color="#5741D0"/>
</linearGradient>
<linearGradient id="paint17_linear_1308_168" x1="2.28715" y1="1276.15" x2="1037.98" y2="1276.15" gradientUnits="userSpaceOnUse">
<stop stop-color="#3D2696"/>
<stop offset="0.491667" stop-color="#4774D9"/>
<stop offset="1" stop-color="#5343CE"/>
</linearGradient>
<radialGradient id="paint18_radial_1308_168" cx="0" cy="0" r="1" gradientUnits="userSpaceOnUse" gradientTransform="translate(620.521 1320.18) rotate(-21.7038) scale(652.778 652.778)">
<stop stop-color="#64BFFF"/>
<stop offset="1" stop-color="#4B52DD"/>
</radialGradient>
<radialGradient id="paint19_radial_1308_168" cx="0" cy="0" r="1" gradientUnits="userSpaceOnUse" gradientTransform="translate(649.471 1250.93) rotate(-21.7369) scale(660.904 660.904)">
<stop stop-color="#719CFF" stop-opacity="0"/>
<stop offset="1" stop-color="#3A3682"/>
</radialGradient>
<linearGradient id="paint20_linear_1308_168" x1="964.79" y1="1666.46" x2="624.7" y2="1760.97" gradientUnits="userSpaceOnUse">
<stop stop-color="#594DA9"/>
<stop offset="0.420833" stop-color="#5674D1"/>
<stop offset="1" stop-color="#5F4BA7"/>
</linearGradient>
<linearGradient id="paint21_linear_1308_168" x1="795.92" y1="1758.86" x2="788.175" y2="1128.67" gradientUnits="userSpaceOnUse">
<stop stop-color="#6F9AF8"/>
<stop offset="1" stop-color="#524BD5"/>
</linearGradient>
<linearGradient id="paint22_linear_1308_168" x1="33.0621" y1="1085.17" x2="1040.59" y2="1085.17" gradientUnits="userSpaceOnUse">
<stop stop-color="#44318E"/>
<stop offset="0.491667" stop-color="#4774D9"/>
<stop offset="1" stop-color="#5343CE"/>
</linearGradient>
<radialGradient id="paint23_radial_1308_168" cx="0" cy="0" r="1" gradientUnits="userSpaceOnUse" gradientTransform="translate(674.74 1176) rotate(-25.0768) scale(746.631 746.631)">
<stop stop-color="#55A6FF"/>
<stop offset="1" stop-color="#3C42C0"/>
</radialGradient>
<linearGradient id="paint24_linear_1308_168" x1="48.0743" y1="960.37" x2="724.202" y2="1183.43" gradientUnits="userSpaceOnUse">
<stop stop-color="#3A3682"/>
<stop offset="1" stop-color="#719CFF" stop-opacity="0"/>
</linearGradient>
<linearGradient id="paint25_linear_1308_168" x1="154.937" y1="62.1276" x2="419.968" y2="152.618" gradientUnits="userSpaceOnUse">
<stop stop-color="#6249DB"/>
<stop offset="1" stop-color="#4950D1"/>
</linearGradient>
<radialGradient id="paint26_radial_1308_168" cx="0" cy="0" r="1" gradientUnits="userSpaceOnUse" gradientTransform="translate(317.391 94.3945) rotate(25.5139) scale(168.484 168.484)">
<stop stop-color="#4A68CA"/>
<stop offset="1" stop-color="#5445C6"/>
</radialGradient>
</defs>
</svg>
