<?xml version="1.0" encoding="UTF-8"?>
<svg id="Layer_1" data-name="Layer 1" xmlns="http://www.w3.org/2000/svg" viewBox="0 0 981.67 934.93">
  <defs>
    <style>
      .cls-1 {
        fill: #fff;
      }

      .cls-2 {
        fill: #fc0;
      }

      .cls-3 {
        fill: #1d1d1b;
      }
    </style>
  </defs>
  <rect class="cls-2" x="186.99" y="186.99" width="467.46" height="467.47"/>
  <path class="cls-1" d="M886.86,724.03c-12.74-6.6-23.72-.99-20.46-30.61,2.33-21.22-9.62-37.64-25.81-48.34-17.14-11.34-38.69-13.84-57.54-21.23-3.04-1.19-6.06-2.49-9.07-3.85-13.9-6.25-28.43-15.54-39.39-26.18-.07-.07-.14-.13-.21-.2-3.25-3.16-6.34-6.52-9.41-9.98-2.08-33.1,8.91-67.47,10.17-95.45,.45-9.95-.33-20.11-1.89-29.93-3.2-20.15-17.5-44.03-3.55-62.59,1.62-2.16,3.45-3.62,5.87-5.93,7.4-7.07,14.41-16.14,15.56-26.62,.27-2.45,.24-4.44,.38-5.87,1.99-2.23,3.17-5.66,2.8-8.61-.19-1.47-.76-2.83-1.81-3.86-1.05-1.03-2.58-1.73-4.69-1.9,.19,.58,.33,1.19,.39,1.82,.06,.63,.03,1.29-.11,1.96-.21,1-.66,2.05-1.44,3.11-.26,.35-.56,.71-.89,1.07,.07-.37,.1-.73,.1-1.09,0-.35-.05-.71-.12-1.05-.22-1.03-.73-1.99-1.39-2.88-.64-.85-1.43-1.62-2.26-2.31-.04-.03-.07-.06-.11-.09-3.29,.53-6.58,.73-10.24,.66-2.2-.04-4.54-.17-7.08-.38-5.09-.42-11.02-1.15-18.42-2.05-12.59-1.54-25.39-2.5-37.84,.5-17.67,4.26-31.66,16.21-37.56,33.67-4.28,12.64-5.1,26.01-7.94,38.98-1.73,7.94-8.11,19.33-21.72,35.78-13.95,2.69-30.45,.25-35.11-.48-1.55-.24-3.08-.54-4.56-.88-.47,.49-.91,1.01-1.31,1.56-.79,1.09-1.37,2.3-1.5,3.55-.06,.63-.01,1.27,.18,1.92-2.88-2.51-3.17-5.19-2.54-7.46,.09-.33,.2-.64,.32-.95-.17-.06-.35-.1-.51-.17-1.79-.64-3.19-.71-4.26-.37-1.07,.35-1.81,1.11-2.27,2.14-.2,.44-.36,.88-.48,1.32-.12,.44-.21,.87-.26,1.29-.11,.85-.08,1.68,.07,2.49,.07,.41,.17,.8,.29,1.2,.19,.59,.44,1.16,.73,1.72,.21,.43,.46,.85,.72,1.26,.15,.23,.3,.46,.46,.68,1.97,2.75,5.97,8.41,18.22,13.56-3.58,.63-10.9-.56-19.1-7.47-10,13.55,16.04,29.38,25.26,36.32,.81,15.01-8.81,27.12-16.56,34.09-13.86,12.47-31.81,21.02-47.17,31.53-20.31,13.89-38.89,29.28-52.85,49.74-2.47,3.61-4.52,7.39-6.18,11.29-4.99,11.69-6.48,24.43-5.19,36.71,1.68,16.03,6.09,34.32-10.77,44.13-6.58,3.83-43.05,13.25-53.26,40.82,25.52-13.78,40.45-5.22,59.73-9.19,17.36-3.57,27.06-16.34,25.83-30.63,1.08,15.31,7.65,29.55,22.7,35.41,7.9,3.08,16.57,3.76,24.95,2.94,7.56-.74,15.24-4.01,22.89-2.6,16.23,3.01,31.56,7.32,47.89,2.94,5.14-1.38,9.57-2.74,13.77-4.21,7.41,2.58,14.78,4.7,21.92,6.29,11.09,2.47,21.98,3.79,32.39,3.9,12.71,.14,24.71-1.48,35.68-4.82,5.26-1.6,10.21-3.67,14.91-5.99,6.33,1.28,12.76,2.04,19.2,2.44,.19,.01,.45,.02,.78,.02,.79,0,1.98-.02,3.34-.07,3.03,1.35,6.83,2.88,10.91,2.92,4.65,.05,8.57-1.86,11.33-5.52,2.52-3.35,3.09-7.39,1.59-11.06-.37-.91-.86-1.77-1.47-2.6-.1-1.93-.45-3.79-1.15-5.54,16.81,2.37,34.32-.17,47.38-3.48-5.66,15.07-26.85,20.08-41.14,17.36,11.76,11.09,29.03,13.08,44.22,9.35,8.45-2.07,16.44-5.9,23.18-11.42,5.51-4.51,10.82-11.23,18.84-8.95,4.74,1.35,6.86,5.48,10.12,8.72,3.98,3.96,8.84,6.86,14.15,8.67,14.93,5.08,29.61-2.04,45.43,5.11-5.1-11.24-13.32-19.47-26.06-26.07"/>
  <path class="cls-3" d="M620.14,622.76c-3.4-2.7-6.17-1.7-6.17-1.7-.35,1.56,1.97,4.37,3.63,8.67,1.66,4.3,5.12,6.38,6.1,2.01,.98-4.36-1.43-7.29-3.56-8.98"/>
  <path class="cls-3" d="M588.27,618.58c.1-.06,.18-.11,.28-.16,1.85-1.04,3.7-1.43,5.02-1.71,1.34-.28,2.14-.44,1.81-1.02-.24-.42-.99-.86-2.02-1.14-1.45-.39-3.47-.47-5.45,.24-.44,.16-.87,.34-1.29,.58-3.73,2.09-5.67,5.03-5.02,6.18,.63,1.12,3.11-.93,6.68-2.97"/>
  <path class="cls-3" d="M606.86,630.39c-.08-.93-.37-1.82-1.01-2.65,1.92-.14,3.32-.74,3.58-1.77,.46-1.79-2.62-4.14-6.89-5.24-4.07-1.05-7.71-.58-8.45,1.02-.04,.08-.1,.15-.12,.24-.12,.45,.02,.94,.32,1.43,.24,.39,.57,.78,1.01,1.15-.02,0-.04,.01-.06,.02-.27,.08-.51,.22-.76,.35-.44,.24-.86,.51-1.23,.86-1.03-.02-2.53,0-4.14,.16-2.45,.25-5.16,.84-6.89,2.19,2.85-.3,5.3-.2,7.18,0,.74,.08,1.41,.16,1.95,.26-.09,.18-.17,.38-.25,.57-.4,.08-.94,.21-1.53,.37-2.75,.71-7.12,2.17-9.1,4.71,4.17-1.52,7.67-1.92,9.51-2.02,.02,0,.06,0,.08,0-.02,.07-.03,.14-.05,.21-.06,.21-.11,.43-.16,.64-2.08,.83-7.8,3.38-9.65,6.87,4.02-2.32,7.52-3.3,9.23-3.69-.07,2.13,.41,3.83,1.24,5.13-1.15,.24-2.01,.8-2.31,1.65-.61,1.75,1.35,4.03,4.38,5.09,.19,.06,.37,.07,.56,.12,2.32,.66,4.44,.39,5.47-.64,.22-.22,.48-.43,.58-.73,.3-.84-.02-1.8-.75-2.69,1.85-.48,3.63-1.6,5.02-3.33,.99,1.1,3.47,4.14,5.48,8.86,.67-4.21-2.95-10.28-3.83-11.68,.09-.22,.17-.46,.25-.69,1.27,1.02,4.12,3.56,6.79,7.66-.07-4.35-4.85-9.8-5.85-10.89,.03-.13,.06-.26,.09-.38,1.67,.82,4.7,2.55,7.9,5.51-.98-3.64-5.59-7.21-7.61-8.64"/>
  <path class="cls-3" d="M886.86,724.03c-12.74-6.6-23.71-.99-20.46-30.61,2.33-21.23-9.62-37.64-25.81-48.34-17.14-11.34-38.69-13.84-57.54-21.23-3.04-1.19-6.06-2.49-9.07-3.85-13.9-6.25-28.43-15.54-39.39-26.19-.07-.06-.14-.13-.21-.19-3.25-3.16-6.34-6.52-9.4-9.98-2.08-33.1,8.91-67.47,10.17-95.45,.45-9.95-.33-20.11-1.89-29.93-3.2-20.15-17.5-44.03-3.55-62.59,1.63-2.16,3.45-3.62,5.87-5.93,7.4-7.07,14.41-16.14,15.57-26.62,.27-2.45,.23-4.44,.37-5.87,1.99-2.24,3.17-5.66,2.8-8.61-.19-1.47-.76-2.83-1.81-3.86-1.05-1.03-2.58-1.73-4.69-1.9,.19,.58,.33,1.19,.39,1.82,.06,.63,.03,1.28-.11,1.95-.21,1.01-.66,2.05-1.44,3.11-.26,.36-.56,.71-.89,1.07,.07-.37,.1-.73,.1-1.09,0-.36-.05-.71-.12-1.05-.22-1.03-.73-1.99-1.39-2.87-.64-.85-1.43-1.62-2.26-2.31-.04-.03-.07-.06-.1-.09-3.29,.54-6.58,.73-10.25,.67-2.2-.04-4.54-.17-7.08-.38-5.09-.42-11.02-1.15-18.42-2.05-12.59-1.54-25.39-2.5-37.84,.5-17.67,4.26-31.66,16.21-37.56,33.67-4.28,12.64-5.1,26.01-7.94,38.98-1.73,7.94-8.11,19.33-21.72,35.77-13.95,2.69-30.45,.25-35.11-.48-1.55-.24-3.08-.53-4.56-.88-.47,.49-.92,1.01-1.31,1.55-.79,1.09-1.37,2.3-1.5,3.55-.06,.63-.01,1.27,.18,1.92-2.88-2.5-3.17-5.18-2.54-7.46,.09-.32,.2-.64,.32-.95-.17-.06-.35-.1-.51-.16-1.79-.64-3.19-.71-4.26-.37-1.07,.35-1.81,1.11-2.27,2.13-.2,.44-.36,.89-.48,1.32-.12,.43-.21,.87-.26,1.29-.1,.85-.08,1.68,.07,2.49,.07,.41,.17,.8,.29,1.2,.19,.59,.44,1.16,.73,1.72,.22,.43,.46,.85,.72,1.26,.15,.23,.3,.46,.46,.68,1.97,2.75,5.97,8.41,18.22,13.56-3.58,.63-10.9-.56-19.1-7.47-10,13.55,16.04,29.38,25.26,36.31,.81,15.01-8.81,27.12-16.56,34.09-13.86,12.47-31.81,21.02-47.17,31.53-20.31,13.89-38.88,29.28-52.85,49.74-2.47,3.61-4.52,7.39-6.18,11.29-4.99,11.69-6.48,24.43-5.19,36.71,1.69,16.03,6.09,34.32-10.77,44.13-6.58,3.83-43.05,13.25-53.26,40.82,25.52-13.78,40.45-5.22,59.73-9.19,17.36-3.57,27.06-16.34,25.83-30.63,1.08,15.31,7.65,29.55,22.7,35.41,7.9,3.07,16.57,3.76,24.95,2.94,7.56-.74,15.24-4.01,22.89-2.6,16.23,3,31.56,7.32,47.89,2.94,5.14-1.38,9.57-2.73,13.77-4.21,7.41,2.58,14.78,4.7,21.92,6.3,11.09,2.47,21.98,3.79,32.39,3.9,12.71,.14,24.71-1.48,35.68-4.82,5.26-1.6,10.21-3.67,14.91-6,6.33,1.28,12.76,2.05,19.2,2.44,.19,.01,.45,.02,.78,.02,.79,.01,1.98-.01,3.34-.07,3.03,1.35,6.83,2.88,10.91,2.92,4.65,.05,8.57-1.86,11.33-5.52,2.52-3.35,3.1-7.39,1.59-11.06-.37-.91-.86-1.78-1.47-2.6-.1-1.93-.45-3.79-1.15-5.54,16.81,2.37,34.32-.17,47.38-3.48-5.66,15.06-26.85,20.08-41.14,17.36,11.76,11.09,29.03,13.08,44.22,9.35,8.45-2.07,16.44-5.9,23.18-11.42,5.51-4.51,10.82-11.23,18.84-8.95,4.74,1.35,6.86,5.48,10.12,8.72,3.98,3.96,8.84,6.86,14.15,8.67,14.93,5.08,29.61-2.04,45.43,5.11-5.1-11.24-13.32-19.47-26.06-26.07m-259.3-302.68c5.09-10.33,7.69-21.95,10.53-30.62,.28-.85,.6-1.68,.91-2.52,4.4,1.73,9.95-1.4,12.55-7.19,2.24-4.99,1.54-10.3-1.39-13.05,10.42-13.29,25.47-22.14,43.65-20.15,17.58,1.93,25.99,2.04,45.88-1.02-6.33,7.37-18.3,8.22-26.1,6.96,2.1,1.76,3.08,3.7,3.08,3.7,0,0-6.67,15.89-24.01,6.48,7.39,2.01,13.55,2.75,19.64-7.69-7.43-6.35-17.56-2.98-19.79,.25-2.95,4.26-7.01,5.62-12.88,11.75-5.87,6.13-8.07,17.79-8.07,17.79,0,0-2.39-4.52,1.66-14.91-7.12,6.05-11.93,12.6-15.61,20.56-4.83,10.45-6.81,38.33,7.16,63.17-8.1-7.15-15.28-18.93-16.27-35.74-9.22,24.63,12.56,49.16,22.61,69.84,10.05,20.68,12.84,31.98,16.69,41.1,6.88,16.31,11.74,25.02,20.81,36.59-17.49-10.81-29.17-46.66-36.54-62.36-.52-1.1-1.05-2.22-1.57-3.34-5.65-12.01-11.91-24.75-21.79-33.9-1.58-1.46-3.2-2.8-4.88-4.03-7.17-5.23-17.8-12.6-36.86-12.26,5.53-6.97,11.4-10.8,20.59-29.44m72.72-62.59c.31,1.22,1.08,2.02,2.06,2.39-.15,.1-.26,.24-.42,.33-2.13,1.24-4.21,.84-4.65-.9-.44-1.74,.93-4.15,3.05-5.39,.13-.08,.26-.09,.39-.15-.53,1.24-.74,2.56-.44,3.74m-197.23,309.82c-14.13,5.8-25.61,14.08-34.25,26.9,1.32-1.97-8.66-26.95-9.13-31.32-5.81-54.87,45.47-80.67,84.16-105.49,27.06-17.36,38.29-34.2,35.39-52.61,12.09,11.77,18.21,27.92,15.2,50.28-3.79,28.19-.05,38.06-.05,38.06,0,0-21.1,4.76-32.78,36.42-9.23,19.57-21.08,24.32-30.52,27.64,6.63-5.62,10.72-13.53,11.75-19.37-12.77,14.52-24.27,23.11-39.77,29.48m123.17,73.64c-5.76-1.23-11.76-2.81-18.05-4.86-.71-.23-1.4-.43-2.12-.67,2.64-1.07,5.32-2.23,8.18-3.55,3.89-1.8,6.66-6.31,8.56-11.28,1.43-3.73,2.35-7.69,2.91-10.97,.17-1.02,.31-1.97,.41-2.82,.31-2.63,.3-4.37,.07-4.35-.17,.02-.55,.82-1.1,2.14-.44,1.04-1,2.42-1.66,3.97-1.66,3.91-3.99,8.98-6.84,13.12-2.05,2.96-4.35,5.44-6.88,6.61-8.57,3.96-12.97,7.04-21.54,9.71-.95,.3-1.91,.59-2.98,.88-10.17,2.74-15.73,2.51-23.48,.58-.15-.03-.3-.08-.45-.12-.63-.16-1.24-.31-1.9-.49-2.97-.81-5.37-1.32-7.42-1.66-2.04-.34-3.75-.52-5.35-.69-2.18-.23-4.24-.45-6.83-1.03-1.78-.4-2.87-1.05-3.22-1.92-.33-.8-.16-2,.44-3.54,.55-1.41,1.45-3.11,2.77-5.12,4.42-6.77,14.54-6.34,21.87-3.92,9.38,3.1,15.28,.73,18.65-3.24,.34-.4,.69-.82,1.06-1.24,4.41-4.92,3.15-10.66,1.73-17.45-.74-3.54-1.51-7.37-1.55-11.51,0-.98,0-1.97,.09-2.98-.37-.15-1.25,1.11-2.06,3.32-.95,2.58-1.73,6.51-1.43,11.25,.03,.4,.01,.78,.06,1.19l.17,1.65c.78,7.47,.8,7.61-2.46,11.33-.38,.44-.74,.87-1.1,1.28-.1,.13-.21,.25-.31,.37-1.12-.79-4.25-3.38-7.19-9.27-.03-.23-.1-.46-.23-.67-.09-.15-.2-.28-.29-.42-.59-1.27-1.16-2.7-1.71-4.27-.95-2.74-1.81-5.95-2.47-9.69-.35-1.99-.64-4.11-.86-6.41-.71-7.36-.65-14.32,.08-21.13,1.27-11.87,4.76-23.25,10.84-35.29,.23-.45,.49-.91,.73-1.36,.97-1.87,1.93-3.74,3.02-5.65,2.81-4.92,5.97-8.43,9.23-10.98,1.69-1.32,3.4-2.4,5.12-3.22,1.78-.85,3.56-1.48,5.3-1.9,2.51-.6,4.93-.79,7.21-.75,5.32,.11,9.76,1.55,12.03,2.47,13.86,5.62,20.44,17.03,17.15,29.8-.82,3.16-1.74,6.1-2.64,8.94-3.74,11.87-4.76,20.72,6.65,28.32,4.95,3.29,10.01,4.34,19.23,7.51,5.1,25.01-10.86,51.11-29.41,60.02m118.23-3.79c-.39,.52-.84,.88-1.32,1.18-2.6,1.61-6.43,.16-11.03-1.93-.79-.36-1.55-.7-2.25-.99-2.04-.84-3.74-1.44-5.29-1.9-3.08-.89-5.5-1.15-8.4-1.19,1.87-1.29,2.7-2.9,2.99-4.27,.28-1.34,.05-2.44-.27-2.76-.06-.06-.53,.25-1.34,.82-2.18,1.52-7.02,4.93-14.49,8.4-3.2,1.49-6.9,2.98-11.06,4.34-6.27,2.05-18.23,3.73-30.64,4.61,23.12-6.76,37.11-28.7,42.96-35.3,9.87,1.02,16.09,9.1,18.69,10.99,3.01,2.18,6.14,3.46,12.26,4.49,6.41,1.09,7.36,2.48,7.5,5.41-2.29-1.16-7.71-2.07-10.26-.6,5.85,.38,11.52,4.47,12.39,6.61,.19,.47,.32,1.13-.42,2.11m25.5-80.2c-12.36-.75-20.21-4.46-26.36-9.32-5.03-3.98-8.93-8.72-13.19-13.25-3.65-3.88-9.33-6.5-12.36-.68-2.65,5.1-.19,10.91,.3,16.2,.84,9.22-3.57,18.08-8.49,25.58-1.49,2.26-3.81,6.09-6.81,10.72,2.35-8.09,4.43-18,5.17-29.27-4.91,17.92-14.89,38.44-22.63,52.89-10.88,12.52-24.4,23.83-39.09,25.43,12.53-13.7,16.97-28.58,18.91-40.23-1.29-11.3-2.92-38.2,7.8-55.52-2.13,6.43-2.79,14.63-2.68,22.83,.84-2.92,1.8-5.81,3.09-8.57,4.14-8.82,11.47-14.51,18.12-21.33,6.71-6.89,1.97-14.61-5.53-18.27-11.3-5.51-36.2-30.73-43.34-76.17-3.01,12.73-2,28.55-.24,38.04-12.17-24.89-5.32-54.42-9.18-81.13-2.17-14.99-9.73-26.38-24.87-30.31-3.44-.89-6.97-1.41-10.51-1.72-.19-.01-.36-.04-.55-.06-2.06,.66-4.31,1.86-6.01,4.15,.93,1.47,2.04,2.61,3.23,3.48,1.23,.9,2.55,1.54,3.89,1.96,1.02-.64,1.77-1.67,1.99-3.11,.23-1.55-.21-3.23-1.05-4.76,.18,.07,.34,.07,.52,.15,2.9,1.33,4.97,4.26,4.63,6.56-.14,.94-.73,1.55-1.5,1.95,3.46,.15,6.18-.61,6.18-.61,0,0-7.84,4.63-12.82,2.14-.94-.47-1.87-.97-2.77-1.48-2.97-1.67-5.51-3.34-6.56-4.05-.32-.22-.54-.37-.54-.37,0,0,.81-2.08,2.8-3.98,.89-.85,2-1.67,3.41-2.24,.05-.02,.1-.03,.16-.05-.21,0-.39-.03-.6-.03-.58-.02-1.1-.06-1.65-.09-17.6-.96-20.34-8.12-20.34-8.12,6.63,2.53,15.04,2.32,24.46,1.87,2.52-.12,5.11-.25,7.76-.36,1.4-.06,2.8-.12,4.23-.15,13.86-.33,25.65,5.07,36.15,18.49-.48,.17-.93,.4-1.33,.73-3.04,2.49-2.19,8.55,1.89,13.53,.09,.11,.19,.19,.27,.3,1.79,2.08,3.85,3.6,5.87,4.45,2.28,.95,4.49,1.06,6.13,.12,.3,.53,.6,1.08,.91,1.63,3.86,6.96,7.68,14.71,13.03,25.21,6.86,13.49,12.53,27.69,20.97,40.32,9.2,13.76,23.91,22.86,36.7,33.26,12.26,9.96,22.79,20.56,36.31,29.04,18.79,11.79,41.33,9.85,59.97,24.32-26.79,2.22-36.98,10.92-53.87,9.9"/>
  <path class="cls-3" d="M164.44,506.98l-47.61-5.02c1.79-8.32,4.38-14.87,7.77-19.64,3.38-4.77,8.26-8.91,14.62-12.42,4.57-2.53,10.85-4.49,18.85-5.87,7.99-1.38,16.65-2.08,25.94-2.08,14.93,0,26.93,.84,35.98,2.51,9.06,1.67,16.6,5.16,22.64,10.46,4.24,3.67,7.59,8.87,10.04,15.61,2.45,6.73,3.67,13.16,3.67,19.27v57.4c0,6.12,.39,10.91,1.16,14.38,.78,3.47,2.46,7.9,5.08,13.28h-46.75c-1.88-3.34-3.1-5.89-3.67-7.65-.57-1.76-1.15-4.51-1.72-8.26-6.53,6.28-13.01,10.77-19.46,13.46-8.81,3.59-19.05,5.39-30.72,5.39-15.5,0-27.27-3.59-35.31-10.77-8.04-7.18-12.05-16.03-12.05-26.56,0-9.87,2.89-17.99,8.69-24.36,5.79-6.36,16.48-11.09,32.06-14.2,18.69-3.75,30.8-6.38,36.35-7.89,5.55-1.51,11.42-3.49,17.62-5.93,0-6.12-1.27-10.41-3.79-12.85-2.53-2.44-6.97-3.67-13.34-3.67-8.16,0-14.28,1.3-18.36,3.92-3.18,2.04-5.75,5.87-7.71,11.5m43.2,26.19c-6.85,2.45-13.99,4.61-21.42,6.49-10.12,2.69-16.52,5.34-19.21,7.96-2.77,2.69-4.16,5.75-4.16,9.18,0,3.92,1.36,7.12,4.1,9.61,2.73,2.49,6.75,3.73,12.05,3.73s10.71-1.34,15.48-4.04c4.77-2.69,8.16-5.98,10.16-9.85,2-3.87,3-8.91,3-15.12v-7.96Z"/>
  <rect class="cls-3" x="287.92" y="415.44" width="49.93" height="179.42"/>
  <path class="cls-3" d="M429.77,415.44v49.45h27.41v36.47h-27.41v46.05c0,5.54,.53,9.2,1.59,10.99,1.63,2.77,4.49,4.15,8.57,4.15,3.67,0,8.81-1.06,15.42-3.18l3.67,34.39c-12.32,2.69-23.83,4.04-34.51,4.04-12.41,0-21.54-1.59-27.42-4.77-5.87-3.18-10.22-8-13.03-14.49-2.81-6.48-4.22-16.97-4.22-31.47v-45.71h-18.36v-36.47h18.36v-23.87l49.93-25.58Z"/>
  <path class="cls-3" d="M228.19,268.38h30.67v41.44c3.03-3.48,6.48-6.09,10.34-7.83,3.85-1.74,8.12-2.61,12.8-2.61,9.65,0,17.64,3.79,23.95,11.38,6.31,7.59,9.48,18.48,9.48,32.67,0,9.46-1.44,17.8-4.33,25-2.89,7.21-6.88,12.59-11.98,16.15-5.1,3.56-10.76,5.34-16.98,5.34-5.32,0-10.2-1.25-14.63-3.75-3.33-1.95-6.97-5.63-10.89-11.01v12.81h-28.43v-119.59Zm30.45,76.03c0,7.45,1.28,12.85,3.84,16.2,2.56,3.34,5.81,5.02,9.74,5.02,3.63,0,6.68-1.65,9.14-4.94,2.46-3.29,3.69-8.82,3.69-16.6,0-6.85-1.2-11.88-3.62-15.09-2.42-3.21-5.34-4.81-8.77-4.81-4.13,0-7.5,1.67-10.11,5.01-2.61,3.34-3.92,8.42-3.92,15.21"/>
  <path class="cls-3" d="M357.66,329.4l-29.03-3.35c1.09-5.55,2.67-9.91,4.74-13.09s5.04-5.94,8.92-8.28c2.78-1.69,6.61-2.99,11.49-3.92,4.87-.92,10.15-1.38,15.82-1.38,9.11,0,16.42,.56,21.94,1.67,5.52,1.11,10.12,3.44,13.81,6.98,2.59,2.45,4.63,5.91,6.12,10.4,1.49,4.49,2.24,8.77,2.24,12.85v38.26c0,4.08,.24,7.28,.71,9.59,.47,2.31,1.5,5.26,3.1,8.85h-28.51c-1.14-2.23-1.89-3.93-2.24-5.1-.35-1.17-.7-3.01-1.04-5.51-3.98,4.19-7.94,7.18-11.87,8.97-5.37,2.39-11.62,3.59-18.73,3.59-9.45,0-16.63-2.4-21.53-7.18-4.9-4.78-7.35-10.68-7.35-17.7,0-6.58,1.76-11.99,5.3-16.24,3.53-4.24,10.05-7.39,19.55-9.46,11.39-2.5,18.78-4.26,22.16-5.26,3.38-1.01,6.97-2.33,10.75-3.96,0-4.08-.77-6.94-2.31-8.57-1.54-1.63-4.26-2.44-8.14-2.44-4.98,0-8.71,.87-11.19,2.61-1.94,1.36-3.51,3.92-4.7,7.67m26.34,17.46c-4.18,1.63-8.53,3.07-13.06,4.32-6.17,1.79-10.07,3.56-11.72,5.3-1.69,1.79-2.54,3.84-2.54,6.12,0,2.61,.83,4.75,2.5,6.4,1.66,1.66,4.11,2.49,7.35,2.49s6.53-.9,9.44-2.69c2.91-1.8,4.98-3.98,6.19-6.57,1.22-2.58,1.83-5.94,1.83-10.07v-5.3Z"/>
  <path class="cls-3" d="M426.54,363.9l30.15-3.1c1.24,3.92,2.98,6.72,5.22,8.41,2.24,1.68,5.22,2.53,8.95,2.53,4.08,0,7.24-.95,9.48-2.85,1.74-1.41,2.61-3.18,2.61-5.3,0-2.39-1.14-4.24-3.43-5.54-1.64-.92-6-2.06-13.06-3.42-10.55-2.01-17.87-3.87-21.98-5.58-4.1-1.71-7.56-4.6-10.37-8.68-2.81-4.07-4.22-8.72-4.22-13.94,0-5.71,1.52-10.62,4.55-14.75,3.04-4.13,7.21-7.21,12.54-9.25,5.32-2.04,12.46-3.06,21.42-3.06,9.45,0,16.43,.79,20.93,2.37,4.5,1.58,8.26,4.02,11.27,7.34,3.01,3.32,5.51,7.8,7.5,13.46l-28.8,3.1c-.75-2.78-1.99-4.81-3.73-6.12-2.39-1.74-5.27-2.61-8.66-2.61s-5.93,.66-7.5,2c-1.57,1.33-2.35,2.94-2.35,4.85,0,2.12,1,3.72,2.98,4.81,1.99,1.09,6.32,2.06,12.99,2.93,10.1,1.25,17.61,2.99,22.54,5.22,4.92,2.23,8.69,5.4,11.3,9.53,2.61,4.13,3.92,8.67,3.92,13.61s-1.38,9.87-4.14,14.59c-2.76,4.73-7.11,8.49-13.06,11.29-5.95,2.8-14.04,4.2-24.29,4.2-14.48,0-24.79-2.26-30.93-6.77-6.15-4.51-10.09-10.93-11.83-19.25"/>
  <path class="cls-3" d="M613.25,352.89h-60.9c.55,5.33,1.87,9.3,3.96,11.91,2.94,3.75,6.76,5.63,11.49,5.63,2.98,0,5.82-.82,8.51-2.45,1.64-1.03,3.41-2.85,5.3-5.47l29.93,3.02c-4.58,8.7-10.1,14.94-16.57,18.72-6.47,3.78-15.75,5.67-27.84,5.67-10.5,0-18.76-1.62-24.78-4.85-6.02-3.23-11-8.37-14.96-15.42-3.95-7.04-5.93-15.32-5.93-24.84,0-13.54,3.97-24.5,11.9-32.88,7.94-8.37,18.89-12.56,32.87-12.56,11.34,0,20.3,1.88,26.87,5.63,6.57,3.75,11.57,9.19,15,16.31,3.43,7.12,5.15,16.4,5.15,27.81v3.75Zm-30.9-15.91c-.6-6.42-2.18-11.01-4.74-13.79-2.56-2.77-5.93-4.16-10.11-4.16-4.83,0-8.68,2.09-11.57,6.28-1.84,2.61-3.01,6.5-3.51,11.67h29.93Z"/>
</svg>