<svg width="2000" height="2000" viewBox="0 0 2000 2000" fill="none" xmlns="http://www.w3.org/2000/svg">
<circle cx="1000" cy="1000" r="1000" fill="white"/>
<mask id="mask0_1320_168" style="mask-type:alpha" maskUnits="userSpaceOnUse" x="0" y="0" width="2000" height="2000">
<circle cx="1000" cy="1000" r="1000" fill="white"/>
</mask>
<g mask="url(#mask0_1320_168)">
<g filter="url(#filter0_d_1320_168)">
<path d="M434.623 1283.28C382.785 1416.22 378.522 1500.48 378.522 1500.48C378.522 1500.48 381.008 1527.1 392.673 1536.24C439.922 1573.24 654.485 1726.04 841.297 1759.03C1094.03 1803.67 1334.78 1746.99 1448.02 1673.05C1577.68 1588.38 1550.13 1519.55 1636.09 1369.51C1636.09 1369.51 1589.4 1233.79 1523.94 1163.74C1523.94 1163.74 454.048 1233.46 434.623 1283.28Z" fill="url(#paint0_radial_1320_168)"/>
<mask id="mask1_1320_168" style="mask-type:luminance" maskUnits="userSpaceOnUse" x="378" y="1163" width="1259" height="612">
<path d="M434.623 1283.28C382.785 1416.22 378.522 1500.48 378.522 1500.48C378.522 1500.48 381.008 1527.1 392.673 1536.24C439.922 1573.24 654.485 1726.04 841.297 1759.03C1094.03 1803.67 1334.78 1746.99 1448.02 1673.05C1577.68 1588.38 1550.13 1519.55 1636.09 1369.51C1636.09 1369.51 1589.4 1233.79 1523.94 1163.74C1523.94 1163.74 454.048 1233.46 434.623 1283.28Z" fill="white"/>
</mask>
<g mask="url(#mask1_1320_168)">
<path d="M351.579 1120.61L1816.94 1134.07L1811.52 1725.07L346.149 1711.6L351.579 1120.61Z" fill="url(#paint1_linear_1320_168)"/>
</g>
<path d="M707.344 1720.94C699.866 1714.53 619.745 1657.77 634.556 1532.67C650.791 1395.54 831.499 1323.98 923.866 1324.27C971.399 1323.98 993.64 1327.41 1066.26 1412.83C1128.27 1485.8 1139.84 1568.34 1139.84 1568.34C1139.84 1568.34 1127.33 1333.05 1255.54 1273.42C1392.24 1209.83 1463.28 1296.62 1463.28 1296.62C1463.28 1296.62 1532.09 1347.56 1550.13 1416.86C1567.02 1481.8 1547.92 1539.28 1547.92 1539.28L1291.65 1820.89C1291.65 1820.89 862.702 1854.1 707.344 1720.94Z" fill="url(#paint2_linear_1320_168)"/>
<path d="M1210.13 1630.61C1210.13 1630.61 1156.83 1430.08 1292.89 1383.98C1425.28 1339.12 1481.34 1469.29 1481.34 1469.29C1481.34 1469.29 1482.47 1490.13 1476.6 1518.05C1468.05 1558.86 1444.59 1614.79 1380.92 1642.88C1280.85 1687 1210.13 1630.61 1210.13 1630.61Z" fill="url(#paint3_linear_1320_168)"/>
<mask id="mask2_1320_168" style="mask-type:luminance" maskUnits="userSpaceOnUse" x="1199" y="1374" width="283" height="286">
<path d="M1210.13 1630.61C1210.13 1630.61 1156.83 1430.08 1292.89 1383.98C1425.28 1339.12 1481.34 1469.29 1481.34 1469.29C1481.34 1469.29 1482.47 1490.13 1476.6 1518.05C1468.05 1558.86 1444.59 1614.79 1380.92 1642.88C1280.85 1687 1210.13 1630.61 1210.13 1630.61Z" fill="white"/>
</mask>
<g mask="url(#mask2_1320_168)">
<path d="M1164.35 1499.76C1163.62 1424.28 1223.64 1362.51 1298.42 1361.78C1373.19 1361.05 1434.41 1421.65 1435.15 1497.12C1435.89 1572.6 1375.86 1634.37 1301.08 1635.1C1226.29 1635.83 1165.07 1575.23 1164.35 1499.76Z" fill="#080521"/>
</g>
<path d="M1061.05 1648.6C1061.05 1648.6 1074.33 1472.18 931.739 1447.37C776.659 1420.39 740.951 1578.09 740.951 1578.09C740.951 1578.09 734.149 1699.49 881.266 1719.72C1007.47 1737.09 1061.05 1648.6 1061.05 1648.6Z" fill="url(#paint4_linear_1320_168)"/>
<mask id="mask3_1320_168" style="mask-type:luminance" maskUnits="userSpaceOnUse" x="740" y="1444" width="322" height="278">
<path d="M1061.05 1648.6C1061.05 1648.6 1074.33 1472.18 931.739 1447.37C776.659 1420.39 740.951 1578.09 740.951 1578.09C740.951 1578.09 734.149 1699.49 881.266 1719.72C1007.47 1737.09 1061.05 1648.6 1061.05 1648.6Z" fill="white"/>
</mask>
<g mask="url(#mask3_1320_168)">
<path d="M762.24 1551.27C761.429 1468.03 825.682 1399.93 905.75 1399.15C985.82 1398.37 1051.38 1465.21 1052.2 1548.45C1053.01 1631.67 988.754 1699.79 908.684 1700.55C828.614 1701.34 763.05 1634.49 762.24 1551.27Z" fill="#080521"/>
</g>
<path d="M1157.3 1723.39C1157.3 1723.39 1188.36 1684.16 1213.78 1672.23L1077.43 1691.92C1077.43 1691.92 1119.78 1699.6 1157.3 1723.39Z" fill="#E86A2C"/>
<path d="M1071.02 1691.62C1071.02 1691.62 1107.74 1697.78 1144.28 1633.47C1144.28 1633.47 1186.53 1680.35 1222.33 1670.04C1222.33 1670.04 1189.73 1678.89 1158.38 1704.57C1158.38 1704.57 1130.47 1693.6 1071.02 1691.62Z" fill="#FF953E"/>
<path d="M1209.79 1630.7C1209.79 1630.7 1207.75 1495.56 1316.51 1458.61C1425.26 1421.65 1478.99 1482.87 1478.99 1482.87C1478.99 1482.87 1504.57 1455.34 1466.83 1414.07C1429.1 1372.8 1330.09 1379.51 1330.09 1379.51C1330.09 1379.51 1251.12 1377.41 1214.82 1484C1192.74 1548.89 1209.79 1630.7 1209.79 1630.7Z" fill="#0E102D" fill-opacity="0.583333"/>
<path d="M1060.24 1650.13C1060.24 1650.13 1043.15 1526.92 912.62 1519.79C772.772 1512.14 746.368 1621.23 746.368 1621.23C746.368 1621.23 716.862 1551.36 753.526 1509.63C790.19 1467.89 883.019 1439.4 913.232 1443.42C943.444 1447.43 1037.29 1505.75 1046.92 1537.81C1065.99 1601.38 1060.24 1650.13 1060.24 1650.13Z" fill="#0E102D" fill-opacity="0.583333"/>
<path d="M1210.09 1631.37C1210.09 1631.37 1152.39 1450.29 1273.33 1380.23C1327.26 1348.97 1377.71 1349.73 1428.93 1365.18C1487.8 1385.89 1506.02 1424.79 1506.79 1467.18C1508.51 1498.28 1497.59 1571.28 1401 1632.11C1401 1632.11 1478.38 1567.55 1476.57 1482.48C1475.04 1409.78 1377.47 1364.7 1285.91 1407.77C1174.41 1460.22 1210.09 1631.37 1210.09 1631.37Z" fill="#080521"/>
<path d="M1060.63 1650.31C1060.63 1650.31 1063.73 1628.79 1062.07 1599.04C1058.7 1538.72 1035.79 1444.57 927.846 1427.41C858.912 1416.46 802.21 1438.58 760.744 1473.36C722.051 1505.82 710.252 1554.81 714.326 1588.65C719.151 1611.14 748.167 1698.33 887.692 1720.29C887.692 1720.29 751.679 1697.11 746.458 1585.84C744.059 1534.7 803.187 1446.84 928.056 1458.08C1060.22 1469.98 1060.63 1650.31 1060.63 1650.31Z" fill="#080521"/>
<path d="M1348.96 1463.51C1348.81 1447.46 1371.35 1434.22 1399.29 1433.95C1427.24 1433.68 1450.02 1446.47 1450.18 1462.53C1450.34 1478.58 1427.8 1491.82 1399.85 1492.09C1371.91 1492.36 1349.12 1479.57 1348.96 1463.51Z" fill="white"/>
<path d="M921.493 1542.78C921.336 1526.72 943.866 1513.49 971.812 1513.22C999.76 1512.94 1022.54 1525.74 1022.7 1541.79C1022.86 1557.85 1000.33 1571.08 972.378 1571.36C944.431 1571.63 921.648 1558.84 921.493 1542.78Z" fill="white"/>
<path d="M759.325 409.1C736.373 429.122 729.756 487.117 714.694 522.994C700.144 557.65 647.661 620.646 616.5 731.759C602.355 782.196 610.074 817.426 570.207 885.526C532.451 950.021 536.905 984.269 516.143 1011.92C497.169 1037.19 489.382 1038.28 476.575 1064.96C476.575 1064.96 508.236 1060.1 562.62 1083C617.005 1105.9 733.215 1138.53 805.919 1144.82C864.719 1149.92 962.857 1152.04 1038.53 1147.54C1056.43 1146.48 1073.07 1145.05 1087.63 1143.2C1162.28 1133.71 1254.63 1112.67 1364.26 1070.13C1432.58 1043.64 1490.74 1005.01 1490.74 1005.01C1471.89 887.216 1402.96 806.646 1369.78 779.604C1342.7 757.535 1278.58 541.83 1035.13 471.221C1035.13 471.221 862.263 403.911 833.495 396.556C819.842 393.067 792.374 380.27 759.325 409.1Z" fill="url(#paint5_radial_1320_168)"/>
<mask id="mask4_1320_168" style="mask-type:luminance" maskUnits="userSpaceOnUse" x="476" y="390" width="1015" height="761">
<path d="M759.325 409.1C736.373 429.122 729.756 487.117 714.694 522.994C700.144 557.65 647.661 620.646 616.5 731.759C602.355 782.196 610.074 817.426 570.207 885.526C532.451 950.021 536.905 984.269 516.143 1011.92C497.169 1037.19 489.382 1038.28 476.575 1064.96C476.575 1064.96 508.236 1060.1 562.62 1083C617.005 1105.9 733.215 1138.53 805.919 1144.82C864.719 1149.92 962.857 1152.04 1038.53 1147.54C1056.43 1146.48 1073.07 1145.05 1087.63 1143.2C1162.28 1133.71 1254.63 1112.67 1364.26 1070.13C1432.58 1043.64 1490.74 1005.01 1490.74 1005.01C1471.89 887.216 1402.96 806.646 1369.78 779.604C1342.7 757.535 1278.58 541.83 1035.13 471.221C1035.13 471.221 862.263 403.911 833.495 396.556C819.842 393.067 792.374 380.27 759.325 409.1Z" fill="white"/>
</mask>
<g mask="url(#mask4_1320_168)">
<path d="M70.0459 230.026H2034.19V1289.03H70.0459V230.026Z" fill="url(#paint6_linear_1320_168)"/>
</g>
<path d="M463.962 1251.49C463.962 1251.49 430.508 1268.58 442.159 1268.28C455.14 1267.94 651.111 1356.16 855.185 1387.41C1003.93 1410.19 1197.02 1392.06 1349.53 1314.1C1453 1261.21 1503.06 1236.7 1544.33 1185.66C1554.64 1172.92 1557.87 1140.75 1534.39 1088.29C1512.53 1039.43 1514.27 1003.47 1504.71 992.097C1504.71 992.097 1491.53 976.664 1477.29 986.635C1402.16 1039.28 1271.98 1089.4 1124.48 1123.48C1012.93 1149.25 798.926 1145.19 643.779 1101.58C578.888 1083.34 525.09 1053.48 486.081 1050.5L491.794 1041.28C474.218 1045.85 460.204 1045.61 439.993 1086.26C421.764 1122.93 444.09 1169.61 438.233 1183.99C433.401 1195.85 396.951 1207.88 427.436 1231.17C454.862 1252.13 463.962 1251.49 463.962 1251.49Z" fill="url(#paint7_linear_1320_168)"/>
<path d="M424.143 1313.38L435.179 1284.66C451.308 1285.05 651.001 1380.85 855.077 1412.1C1003.82 1434.88 1196.91 1416.75 1349.42 1338.79C1452.89 1285.9 1537.48 1239.05 1551.36 1192.9C1562.95 1154.37 1557.76 1165.44 1534.28 1112.98C1512.42 1064.12 1514.16 1028.16 1504.6 1016.79C1504.6 1016.79 1491.42 1001.35 1477.18 1011.32C1402.05 1063.96 1271.87 1114.09 1124.37 1148.17C1012.82 1173.94 798.815 1169.87 643.67 1126.26C566.622 1104.61 503.979 1066.82 464.707 1077.04C447.133 1081.62 440.182 1090.81 419.972 1131.46C401.743 1168.13 407.97 1195.86 402.111 1210.24C397.279 1222.1 375.997 1243.63 385.051 1280.91C394.79 1321.01 424.143 1313.38 424.143 1313.38Z" fill="url(#paint8_linear_1320_168)"/>
<path d="M430.673 1299.01C430.673 1299.01 435.582 1276.96 447.234 1276.66C460.214 1276.32 656.184 1364.54 860.26 1395.79C1009.01 1418.57 1202.09 1400.44 1354.61 1322.48C1458.06 1269.59 1508.14 1245.08 1549.41 1194.04C1559.7 1181.3 1562.93 1149.13 1539.47 1096.67C1517.6 1047.81 1519.34 1011.85 1509.77 1000.47C1509.77 1000.47 1496.6 985.041 1482.37 995.012C1407.22 1047.65 1277.04 1097.78 1129.54 1131.86C1018 1157.63 803.998 1153.56 648.853 1109.95C571.805 1088.3 509.162 1050.51 469.89 1060.73C452.316 1065.31 445.365 1074.49 425.157 1115.15C406.926 1151.82 413.153 1179.55 407.294 1193.93C402.464 1205.79 381.18 1227.32 390.234 1264.6C399.973 1304.7 430.673 1299.01 430.673 1299.01Z" fill="url(#paint9_radial_1320_168)"/>
<mask id="mask5_1320_168" style="mask-type:luminance" maskUnits="userSpaceOnUse" x="388" y="991" width="1170" height="414">
<path d="M430.673 1299.01C430.673 1299.01 435.582 1276.96 447.234 1276.66C460.214 1276.32 656.184 1364.54 860.26 1395.79C1009.01 1418.57 1202.09 1400.44 1354.61 1322.48C1458.06 1269.59 1508.14 1245.08 1549.41 1194.04C1559.7 1181.3 1562.93 1149.13 1539.47 1096.67C1517.6 1047.81 1519.34 1011.85 1509.77 1000.47C1509.77 1000.47 1496.6 985.041 1482.37 995.012C1407.22 1047.65 1277.04 1097.78 1129.54 1131.86C1018 1157.63 803.998 1153.56 648.853 1109.95C571.805 1088.3 509.162 1050.51 469.89 1060.73C452.316 1065.31 445.365 1074.49 425.157 1115.15C406.926 1151.82 413.153 1179.55 407.294 1193.93C402.464 1205.79 381.18 1227.32 390.234 1264.6C399.973 1304.7 430.673 1299.01 430.673 1299.01Z" fill="white"/>
</mask>
<g mask="url(#mask5_1320_168)">
<path d="M-19.4976 570.965H1944.63V1629.96H-19.4976V570.965Z" fill="url(#paint10_linear_1320_168)"/>
</g>
<path d="M271.727 1835.55C271.727 1835.55 267.414 1904.35 241.239 1952.75C211.824 2007.15 204.034 2050.66 214.566 2082.3C222.256 2105.42 291.431 2185.33 384.391 2251.27C473.576 2314.54 534.606 2338.46 601.771 2358.22C690.577 2384.35 831.682 2394.07 892.122 2379.4C945.426 2366.47 1013.56 2343.98 1112.3 2251.44C1183.49 2184.74 1463.06 2057.44 1463.06 2057.44C1463.06 2057.44 1640.07 2059.64 1718.36 2034.33C1796.77 2008.97 1834.12 1980.82 1833.32 1946.46C1832.84 1925.98 1824.25 1926.61 1823.59 1908.93C1822.91 1891.26 1828.92 1885.78 1825.47 1863.6C1822.91 1847.22 1806.98 1837.24 1806.98 1837.24L271.727 1835.55Z" fill="url(#paint11_linear_1320_168)"/>
<path d="M279.279 1818.54C279.279 1818.54 274.966 1887.34 248.791 1935.76C219.376 1990.14 211.586 2033.67 222.119 2065.31C229.809 2088.41 298.983 2168.33 391.943 2234.28C481.128 2297.55 542.159 2321.45 609.323 2341.22C698.13 2367.36 825.09 2378.93 887.877 2366.4C932.271 2357.55 1021.1 2326.99 1119.86 2234.45C1191.04 2167.75 1470.62 2040.44 1470.62 2040.44C1470.62 2040.44 1647.63 2042.65 1725.91 2017.32C1804.33 1991.96 1841.67 1963.81 1840.88 1929.47C1840.39 1908.99 1831.8 1909.6 1831.14 1891.94C1830.47 1874.27 1836.47 1868.79 1833.02 1846.61C1830.47 1830.22 1814.53 1820.23 1814.53 1820.23L279.279 1818.54Z" fill="url(#paint12_radial_1320_168)"/>
<mask id="mask6_1320_168" style="mask-type:luminance" maskUnits="userSpaceOnUse" x="217" y="1818" width="1624" height="554">
<path d="M279.279 1818.54C279.279 1818.54 274.966 1887.34 248.791 1935.76C219.376 1990.14 211.586 2033.67 222.119 2065.31C229.809 2088.41 298.983 2168.33 391.943 2234.28C481.128 2297.55 542.159 2321.45 609.323 2341.22C698.13 2367.36 825.09 2378.93 887.877 2366.4C932.271 2357.55 1021.1 2326.99 1119.86 2234.45C1191.04 2167.75 1470.62 2040.44 1470.62 2040.44C1470.62 2040.44 1647.63 2042.65 1725.91 2017.32C1804.33 1991.96 1841.67 1963.81 1840.88 1929.47C1840.39 1908.99 1831.8 1909.6 1831.14 1891.94C1830.47 1874.27 1836.47 1868.79 1833.02 1846.61C1830.47 1830.22 1814.53 1820.23 1814.53 1820.23L279.279 1818.54Z" fill="white"/>
</mask>
<g mask="url(#mask6_1320_168)">
<path d="M-90.6611 1468.94H1873.48V2527.94H-90.6611V1468.94Z" fill="url(#paint13_radial_1320_168)"/>
</g>
<path d="M1251.46 2172.29C1251.46 2172.29 1295.25 2366.15 1285.18 2518.04C1274.64 2676.82 1221.61 2805.92 1223.19 2825.39C1224.27 2838.69 1231.81 2857.23 1311.55 2852.89C1470.09 2844.22 1614.03 2748.1 1646.48 2698.03C1678.93 2647.98 1632.08 2589.12 1630.53 2535.66C1626.86 2408.3 1669.48 2366 1670.72 2294.57C1672.22 2208.83 1632.08 2146.62 1632.08 2097.86C1632.08 2033.23 1654.78 1949.22 1654.78 1949.22L1449.21 2030.19L1251.46 2172.29Z" fill="url(#paint14_linear_1320_168)"/>
<path d="M1255.49 2162.19C1255.49 2162.19 1299.27 2356.04 1289.19 2507.95C1278.66 2666.71 1225.62 2795.81 1227.2 2815.28C1228.28 2828.58 1235.82 2847.14 1315.57 2842.78C1474.1 2834.13 1618.04 2738.01 1650.5 2687.92C1682.94 2637.87 1636.09 2579.01 1634.54 2525.55C1630.87 2398.2 1673.49 2355.89 1674.74 2284.47C1676.23 2198.73 1636.09 2136.51 1636.09 2087.75C1636.09 2023.12 1685.67 1931.78 1685.67 1931.78L1453.22 2020.08L1255.49 2162.19Z" fill="url(#paint15_linear_1320_168)"/>
<path d="M375.878 1489.3C375.878 1489.3 349.143 1503.77 329.2 1525.98C309.256 1548.2 310.646 1667.63 303.502 1706.18C296.357 1744.74 269.119 1765.13 262.329 1780.85C255.918 1795.67 255.308 1820.04 275.095 1839.7C294.884 1859.34 528.614 2055.17 602.743 2106.19C651.979 2140.07 872.35 2261.24 1011.74 2259.69C1151.12 2258.12 1304.85 2171.04 1427.38 2092.86C1548.14 2015.85 1652.6 1988.78 1730.57 1929.85C1803.9 1874.43 1851.74 1851.48 1833.56 1804.56C1818.57 1765.85 1828.64 1711.76 1806.24 1650.04C1783.69 1587.9 1743.44 1558.73 1733.31 1541.99C1721.56 1522.58 1715.35 1452.72 1692.44 1416.73C1669.54 1380.74 1631.64 1362.68 1626.63 1375.29C1533.15 1610.06 1400.75 1682.59 1265.07 1728.91C1145.84 1769.59 914.263 1785.16 677.73 1697.56C469.936 1620.61 406.196 1553.62 381.267 1527.18C373.317 1518.75 375.878 1489.3 375.878 1489.3Z" fill="url(#paint16_linear_1320_168)"/>
<path d="M381.035 1477.11C381.035 1477.11 354.298 1491.57 334.355 1513.79C314.412 1536.01 315.803 1655.43 308.657 1693.99C301.514 1732.54 274.276 1752.93 267.486 1768.65C261.074 1783.48 260.463 1807.85 280.252 1827.51C300.039 1847.14 533.769 2042.98 607.899 2093.99C657.136 2127.88 877.505 2249.04 1016.89 2247.49C1156.28 2245.93 1310 2158.85 1432.53 2080.67C1553.29 2003.65 1657.75 1976.59 1735.73 1917.66C1809.06 1862.24 1856.89 1839.29 1838.71 1792.37C1823.73 1753.65 1833.79 1699.57 1811.4 1637.85C1788.84 1575.7 1748.59 1546.54 1738.47 1529.8C1726.71 1510.39 1720.51 1440.53 1697.59 1404.54C1674.7 1368.55 1636.8 1350.49 1631.78 1363.09C1538.31 1597.87 1405.9 1670.4 1270.22 1716.71C1151 1757.4 919.418 1772.96 682.885 1685.37C475.091 1608.41 411.353 1541.43 386.423 1514.99C378.474 1506.56 381.035 1477.11 381.035 1477.11Z" fill="url(#paint17_radial_1320_168)"/>
<mask id="mask7_1320_168" style="mask-type:luminance" maskUnits="userSpaceOnUse" x="263" y="1359" width="1580" height="889">
<path d="M381.035 1477.11C381.035 1477.11 354.298 1491.57 334.355 1513.79C314.412 1536.01 315.803 1655.43 308.657 1693.99C301.514 1732.54 274.276 1752.93 267.486 1768.65C261.074 1783.48 260.463 1807.85 280.252 1827.51C300.039 1847.14 533.769 2042.98 607.899 2093.99C657.136 2127.88 877.505 2249.04 1016.89 2247.49C1156.28 2245.93 1310 2158.85 1432.53 2080.67C1553.29 2003.65 1657.75 1976.59 1735.73 1917.66C1809.06 1862.24 1856.89 1839.29 1838.71 1792.37C1823.73 1753.65 1833.79 1699.57 1811.4 1637.85C1788.84 1575.7 1748.59 1546.54 1738.47 1529.8C1726.71 1510.39 1720.51 1440.53 1697.59 1404.54C1674.7 1368.55 1636.8 1350.49 1631.78 1363.09C1538.31 1597.87 1405.9 1670.4 1270.22 1716.71C1151 1757.4 919.418 1772.96 682.885 1685.37C475.091 1608.41 411.353 1541.43 386.423 1514.99C378.474 1506.56 381.035 1477.11 381.035 1477.11Z" fill="white"/>
</mask>
<g mask="url(#mask7_1320_168)">
<path d="M-74.2466 1271H1889.89V2330.01H-74.2466V1271Z" fill="url(#paint18_linear_1320_168)"/>
</g>
<path d="M539.224 263.035C539.224 187.367 600.566 126.026 676.233 126.026C751.902 126.026 813.243 187.367 813.243 263.035C813.243 338.704 751.902 400.044 676.233 400.044C600.566 400.044 539.224 338.704 539.224 263.035Z" fill="url(#paint19_linear_1320_168)"/>
<path d="M542.924 252.01C542.924 176.341 604.266 115 679.934 115C755.603 115 816.943 176.341 816.943 252.01C816.943 327.677 755.603 389.02 679.934 389.02C604.266 389.02 542.924 327.677 542.924 252.01Z" fill="url(#paint20_radial_1320_168)"/>
</g>
</g>
<defs>
<filter id="filter0_d_1320_168" x="203" y="111" width="1696" height="2758.87" filterUnits="userSpaceOnUse" color-interpolation-filters="sRGB">
<feFlood flood-opacity="0" result="BackgroundImageFix"/>
<feColorMatrix in="SourceAlpha" type="matrix" values="0 0 0 0 0 0 0 0 0 0 0 0 0 0 0 0 0 0 127 0" result="hardAlpha"/>
<feOffset/>
<feGaussianBlur stdDeviation="2"/>
<feComposite in2="hardAlpha" operator="out"/>
<feColorMatrix type="matrix" values="0 0 0 0 0 0 0 0 0 0 0 0 0 0 0 0 0 0 0.25 0"/>
<feBlend mode="normal" in2="BackgroundImageFix" result="effect1_dropShadow_1320_168"/>
<feBlend mode="normal" in="SourceGraphic" in2="effect1_dropShadow_1320_168" result="shape"/>
</filter>
<radialGradient id="paint0_radial_1320_168" cx="0" cy="0" r="1" gradientUnits="userSpaceOnUse" gradientTransform="translate(1224.79 1539.06) rotate(-172.429) scale(751.508 751.508)">
<stop offset="0.59375" stop-color="#27254A"/>
<stop offset="0.695833" stop-color="#211D3F"/>
<stop offset="1" stop-color="#090316"/>
</radialGradient>
<linearGradient id="paint1_linear_1320_168" x1="1134.72" y1="2142.81" x2="1024.51" y2="1384.48" gradientUnits="userSpaceOnUse">
<stop offset="0.516667" stop-color="#27254A" stop-opacity="0"/>
<stop offset="1" stop-color="#191226"/>
</linearGradient>
<linearGradient id="paint2_linear_1320_168" x1="1138.01" y1="1563.76" x2="1112.86" y2="1355.05" gradientUnits="userSpaceOnUse">
<stop stop-color="#FBF2E9"/>
<stop offset="1" stop-color="#FFDBE8"/>
</linearGradient>
<linearGradient id="paint3_linear_1320_168" x1="1248.19" y1="1682.14" x2="1367.04" y2="1442.99" gradientUnits="userSpaceOnUse">
<stop stop-color="#63A7FF"/>
<stop offset="1" stop-color="#6555E2"/>
</linearGradient>
<linearGradient id="paint4_linear_1320_168" x1="1048.18" y1="1690.3" x2="810.059" y2="1579.29" gradientUnits="userSpaceOnUse">
<stop stop-color="#63A7FF"/>
<stop offset="1" stop-color="#6555E2"/>
</linearGradient>
<radialGradient id="paint5_radial_1320_168" cx="0" cy="0" r="1" gradientUnits="userSpaceOnUse" gradientTransform="translate(1066.41 937.918) rotate(75.3291) scale(1039.92 1039.92)">
<stop stop-color="#5B9CFF"/>
<stop offset="1" stop-color="#3C42C0"/>
</radialGradient>
<linearGradient id="paint6_linear_1320_168" x1="503.121" y1="790.857" x2="993.253" y2="994.764" gradientUnits="userSpaceOnUse">
<stop stop-color="#3A3682"/>
<stop offset="1" stop-color="#719CFF" stop-opacity="0"/>
</linearGradient>
<linearGradient id="paint7_linear_1320_168" x1="1527.89" y1="1014.39" x2="426.242" y2="1129.9" gradientUnits="userSpaceOnUse">
<stop stop-color="#5FA0FF"/>
<stop offset="1" stop-color="#5D8FFF"/>
</linearGradient>
<linearGradient id="paint8_linear_1320_168" x1="1592.05" y1="1196.65" x2="382.15" y2="1267" gradientUnits="userSpaceOnUse">
<stop stop-color="#594DA9"/>
<stop offset="0.420833" stop-color="#4666C8"/>
<stop offset="1" stop-color="#3F2E7B"/>
</linearGradient>
<radialGradient id="paint9_radial_1320_168" cx="0" cy="0" r="1" gradientUnits="userSpaceOnUse" gradientTransform="translate(1096.5 1243.88) rotate(-172.963) scale(566.778 566.778)">
<stop stop-color="#6491FF"/>
<stop offset="1" stop-color="#5159EA"/>
</radialGradient>
<linearGradient id="paint10_linear_1320_168" x1="347.715" y1="1144.85" x2="1242.14" y2="1353.16" gradientUnits="userSpaceOnUse">
<stop stop-color="#3A3682"/>
<stop offset="1" stop-color="#719CFF" stop-opacity="0"/>
</linearGradient>
<linearGradient id="paint11_linear_1320_168" x1="210.101" y1="2114.81" x2="1833.33" y2="2114.81" gradientUnits="userSpaceOnUse">
<stop stop-color="#3D2696"/>
<stop offset="0.491667" stop-color="#4774D9"/>
<stop offset="1" stop-color="#5343CE"/>
</linearGradient>
<radialGradient id="paint12_radial_1320_168" cx="0" cy="0" r="1" gradientUnits="userSpaceOnUse" gradientTransform="translate(1179.05 2183.81) rotate(-21.7038) scale(1023.1 1023.1)">
<stop stop-color="#64BFFF"/>
<stop offset="1" stop-color="#4B52DD"/>
</radialGradient>
<radialGradient id="paint13_radial_1320_168" cx="0" cy="0" r="1" gradientUnits="userSpaceOnUse" gradientTransform="translate(1224.43 2075.28) rotate(-21.7369) scale(1035.83 1035.83)">
<stop stop-color="#719CFF" stop-opacity="0"/>
<stop offset="1" stop-color="#3A3682"/>
</radialGradient>
<linearGradient id="paint14_linear_1320_168" x1="1718.63" y1="2726.54" x2="1185.61" y2="2874.67" gradientUnits="userSpaceOnUse">
<stop stop-color="#594DA9"/>
<stop offset="0.420833" stop-color="#5674D1"/>
<stop offset="1" stop-color="#5F4BA7"/>
</linearGradient>
<linearGradient id="paint15_linear_1320_168" x1="1453.96" y1="2871.35" x2="1441.82" y2="1883.66" gradientUnits="userSpaceOnUse">
<stop stop-color="#6F9AF8"/>
<stop offset="1" stop-color="#524BD5"/>
</linearGradient>
<linearGradient id="paint16_linear_1320_168" x1="258.334" y1="1815.48" x2="1837.43" y2="1815.48" gradientUnits="userSpaceOnUse">
<stop stop-color="#44318E"/>
<stop offset="0.491667" stop-color="#4774D9"/>
<stop offset="1" stop-color="#5343CE"/>
</linearGradient>
<radialGradient id="paint17_radial_1320_168" cx="0" cy="0" r="1" gradientUnits="userSpaceOnUse" gradientTransform="translate(1264.03 1957.84) rotate(-25.0768) scale(1170.19 1170.19)">
<stop stop-color="#55A6FF"/>
<stop offset="1" stop-color="#3C42C0"/>
</radialGradient>
<linearGradient id="paint18_linear_1320_168" x1="281.863" y1="1619.89" x2="1341.56" y2="1969.49" gradientUnits="userSpaceOnUse">
<stop stop-color="#3A3682"/>
<stop offset="1" stop-color="#719CFF" stop-opacity="0"/>
</linearGradient>
<linearGradient id="paint19_linear_1320_168" x1="449.349" y1="212.076" x2="864.73" y2="353.901" gradientUnits="userSpaceOnUse">
<stop stop-color="#6249DB"/>
<stop offset="1" stop-color="#4950D1"/>
</linearGradient>
<radialGradient id="paint20_radial_1320_168" cx="0" cy="0" r="1" gradientUnits="userSpaceOnUse" gradientTransform="translate(703.96 262.647) rotate(25.5139) scale(264.065 264.065)">
<stop stop-color="#4A68CA"/>
<stop offset="1" stop-color="#5445C6"/>
</radialGradient>
</defs>
</svg>
